<svg width="397" height="57" viewBox="0 0 397 57" fill="none" xmlns="http://www.w3.org/2000/svg">
<g opacity="0.44">
<path d="M12.1523 35.061H13.3711C13.3076 35.645 13.1405 36.1676 12.8696 36.6289C12.5988 37.0902 12.2158 37.4562 11.7207 37.7271C11.2256 37.9937 10.6077 38.127 9.86719 38.127C9.32552 38.127 8.83252 38.0254 8.38818 37.8223C7.94808 37.6191 7.56934 37.3314 7.25195 36.959C6.93457 36.5824 6.68913 36.1317 6.51562 35.6069C6.34635 35.078 6.26172 34.4897 6.26172 33.8423V32.9219C6.26172 32.2744 6.34635 31.6883 6.51562 31.1636C6.68913 30.6346 6.93669 30.1818 7.2583 29.8052C7.58415 29.4285 7.97559 29.1387 8.43262 28.9355C8.88965 28.7324 9.40381 28.6309 9.9751 28.6309C10.6733 28.6309 11.2637 28.762 11.7461 29.0244C12.2285 29.2868 12.603 29.6507 12.8696 30.1162C13.1405 30.5775 13.3076 31.1128 13.3711 31.7222H12.1523C12.0931 31.2905 11.9831 30.9202 11.8223 30.6113C11.6615 30.2982 11.4329 30.057 11.1367 29.8877C10.8405 29.7184 10.4533 29.6338 9.9751 29.6338C9.56462 29.6338 9.2028 29.7121 8.88965 29.8687C8.58073 30.0252 8.32048 30.2474 8.10889 30.5352C7.90153 30.8229 7.74495 31.1678 7.63916 31.5698C7.53337 31.9718 7.48047 32.4183 7.48047 32.9092V33.8423C7.48047 34.2951 7.52702 34.7204 7.62012 35.1182C7.71745 35.516 7.86344 35.8651 8.05811 36.1655C8.25277 36.466 8.50033 36.703 8.80078 36.8765C9.10124 37.0457 9.45671 37.1304 9.86719 37.1304C10.3877 37.1304 10.8024 37.0479 11.1113 36.8828C11.4202 36.7178 11.653 36.4808 11.8096 36.1719C11.9704 35.863 12.0846 35.4927 12.1523 35.061Z" fill="#343D52"/>
<path d="M19.522 34.1089V35.061H15.8911V34.1089H19.522ZM16.1387 31.1318V38H14.9644V31.1318H16.1387ZM20.4741 31.1318V38H19.2935V31.1318H20.4741Z" fill="#343D52"/>
<path d="M23.7559 34.7246H25.0254L23.0386 38H21.769L23.7559 34.7246ZM24.7397 31.1318H27.6089V38H26.4346V32.084H24.7397C24.4054 32.084 24.1325 32.1411 23.9209 32.2554C23.7093 32.3654 23.5549 32.5093 23.4575 32.687C23.3602 32.8647 23.3115 33.0488 23.3115 33.2393C23.3115 33.4255 23.356 33.6053 23.4448 33.7788C23.5337 33.9481 23.6733 34.0877 23.8638 34.1978C24.0542 34.3078 24.2996 34.3628 24.6001 34.3628H26.752V35.3276H24.6001C24.2065 35.3276 23.8574 35.2747 23.5527 35.1689C23.248 35.0632 22.9899 34.9172 22.7783 34.731C22.5667 34.5405 22.4059 34.3184 22.2959 34.0645C22.1859 33.8063 22.1309 33.527 22.1309 33.2266C22.1309 32.9261 22.188 32.6489 22.3022 32.395C22.4207 32.1411 22.59 31.9189 22.8101 31.7285C23.0343 31.5381 23.3073 31.3921 23.6289 31.2905C23.9548 31.1847 24.325 31.1318 24.7397 31.1318Z" fill="#343D52"/>
<path d="M32.2998 31.1318V38H31.1191V31.1318H32.2998ZM34.604 31.1318V32.084H28.8594V31.1318H34.604Z" fill="#343D52"/>
<path d="M35.1816 34.6421V34.4961C35.1816 34.001 35.2536 33.5418 35.3975 33.1187C35.5413 32.6912 35.7487 32.321 36.0195 32.0078C36.2904 31.6904 36.6183 31.445 37.0034 31.2715C37.3885 31.0938 37.8201 31.0049 38.2983 31.0049C38.7808 31.0049 39.2145 31.0938 39.5996 31.2715C39.9889 31.445 40.319 31.6904 40.5898 32.0078C40.8649 32.321 41.0744 32.6912 41.2183 33.1187C41.3621 33.5418 41.4341 34.001 41.4341 34.4961V34.6421C41.4341 35.1372 41.3621 35.5964 41.2183 36.0195C41.0744 36.4427 40.8649 36.813 40.5898 37.1304C40.319 37.4435 39.991 37.689 39.606 37.8667C39.2251 38.0402 38.7935 38.127 38.311 38.127C37.8286 38.127 37.3949 38.0402 37.0098 37.8667C36.6247 37.689 36.2946 37.4435 36.0195 37.1304C35.7487 36.813 35.5413 36.4427 35.3975 36.0195C35.2536 35.5964 35.1816 35.1372 35.1816 34.6421ZM36.356 34.4961V34.6421C36.356 34.9849 36.3962 35.3086 36.4766 35.6133C36.557 35.9137 36.6776 36.1803 36.8384 36.4131C37.0034 36.6458 37.2087 36.8299 37.4541 36.9653C37.6995 37.0965 37.9852 37.1621 38.311 37.1621C38.6326 37.1621 38.9141 37.0965 39.1553 36.9653C39.4007 36.8299 39.6038 36.6458 39.7646 36.4131C39.9255 36.1803 40.0461 35.9137 40.1265 35.6133C40.2111 35.3086 40.2534 34.9849 40.2534 34.6421V34.4961C40.2534 34.1576 40.2111 33.8381 40.1265 33.5376C40.0461 33.2329 39.9233 32.9642 39.7583 32.7314C39.5975 32.4945 39.3944 32.3083 39.1489 32.1729C38.9077 32.0374 38.6242 31.9697 38.2983 31.9697C37.9767 31.9697 37.6932 32.0374 37.4478 32.1729C37.2065 32.3083 37.0034 32.4945 36.8384 32.7314C36.6776 32.9642 36.557 33.2329 36.4766 33.5376C36.3962 33.8381 36.356 34.1576 36.356 34.4961Z" fill="#343D52"/>
<path d="M48.061 37.2891L49.9717 31.1318H51.2285L48.4736 39.0601C48.4102 39.2293 48.3255 39.4113 48.2197 39.606C48.1182 39.8049 47.987 39.9932 47.8262 40.1709C47.6654 40.3486 47.4707 40.4925 47.2422 40.6025C47.0179 40.7168 46.7492 40.7739 46.436 40.7739C46.3429 40.7739 46.2244 40.7612 46.0806 40.7358C45.9367 40.7104 45.8351 40.6893 45.7759 40.6724L45.7695 39.7202C45.8034 39.7244 45.8563 39.7287 45.9282 39.7329C46.0044 39.7414 46.0573 39.7456 46.0869 39.7456C46.3535 39.7456 46.5799 39.7096 46.7661 39.6377C46.9523 39.57 47.1089 39.4536 47.2358 39.2886C47.367 39.1278 47.4792 38.9056 47.5723 38.6221L48.061 37.2891ZM46.6582 31.1318L48.4419 36.4639L48.7466 37.7017L47.9023 38.1333L45.376 31.1318H46.6582Z" fill="#343D52"/>
<path d="M54.3706 35.0103L51.7681 31.1318H53.1836L54.9609 33.9756H56.332L56.1606 35.0103H54.3706ZM55.0117 34.8896L53.0186 38H51.5332L54.269 34.0391L55.0117 34.8896ZM56.9351 31.1318V38H55.7607V31.1318H56.9351ZM60.9404 31.1318L58.3379 35.0103H56.5479L56.3638 33.9756H57.7412L59.5186 31.1318H60.9404ZM59.6836 38L57.6841 34.8896L58.4395 34.0391L61.1689 38H59.6836Z" fill="#343D52"/>
<path d="M64.9775 38.127C64.4993 38.127 64.0656 38.0465 63.6763 37.8857C63.2912 37.7207 62.959 37.4901 62.6797 37.1938C62.4046 36.8976 62.193 36.5464 62.0449 36.1401C61.8968 35.7339 61.8228 35.2896 61.8228 34.8071V34.5405C61.8228 33.9819 61.9053 33.4847 62.0703 33.0488C62.2354 32.6087 62.4596 32.2363 62.7432 31.9316C63.0267 31.627 63.3483 31.3963 63.708 31.2397C64.0677 31.0832 64.4401 31.0049 64.8252 31.0049C65.3161 31.0049 65.7393 31.0895 66.0947 31.2588C66.4544 31.4281 66.7485 31.665 66.9771 31.9697C67.2056 32.2702 67.3748 32.6257 67.4849 33.0361C67.5949 33.4424 67.6499 33.8867 67.6499 34.3691V34.896H62.521V33.9375H66.4756V33.8486C66.4587 33.5439 66.3952 33.2477 66.2852 32.96C66.1794 32.6722 66.0101 32.4352 65.7773 32.249C65.5446 32.0628 65.2272 31.9697 64.8252 31.9697C64.5586 31.9697 64.3132 32.0269 64.0889 32.1411C63.8646 32.2511 63.672 32.4162 63.5112 32.6362C63.3504 32.8563 63.2256 33.125 63.1367 33.4424C63.0479 33.7598 63.0034 34.1258 63.0034 34.5405V34.8071C63.0034 35.133 63.0479 35.4398 63.1367 35.7275C63.2298 36.0111 63.3631 36.2607 63.5366 36.4766C63.7144 36.6924 63.9281 36.8617 64.1777 36.9844C64.4316 37.1071 64.7194 37.1685 65.041 37.1685C65.4557 37.1685 65.807 37.0838 66.0947 36.9146C66.3825 36.7453 66.6343 36.5189 66.8501 36.2354L67.561 36.8003C67.4129 37.0246 67.2246 37.2383 66.9961 37.4414C66.7676 37.6445 66.4862 37.8096 66.1519 37.9365C65.8218 38.0635 65.4303 38.127 64.9775 38.127Z" fill="#343D52"/>
<path d="M150.152 35.061H151.371C151.308 35.645 151.14 36.1676 150.87 36.6289C150.599 37.0902 150.216 37.4562 149.721 37.7271C149.226 37.9937 148.608 38.127 147.867 38.127C147.326 38.127 146.833 38.0254 146.388 37.8223C145.948 37.6191 145.569 37.3314 145.252 36.959C144.935 36.5824 144.689 36.1317 144.516 35.6069C144.346 35.078 144.262 34.4897 144.262 33.8423V32.9219C144.262 32.2744 144.346 31.6883 144.516 31.1636C144.689 30.6346 144.937 30.1818 145.258 29.8052C145.584 29.4285 145.976 29.1387 146.433 28.9355C146.89 28.7324 147.404 28.6309 147.975 28.6309C148.673 28.6309 149.264 28.762 149.746 29.0244C150.229 29.2868 150.603 29.6507 150.87 30.1162C151.14 30.5775 151.308 31.1128 151.371 31.7222H150.152C150.093 31.2905 149.983 30.9202 149.822 30.6113C149.661 30.2982 149.433 30.057 149.137 29.8877C148.84 29.7184 148.453 29.6338 147.975 29.6338C147.565 29.6338 147.203 29.7121 146.89 29.8687C146.581 30.0252 146.32 30.2474 146.109 30.5352C145.902 30.8229 145.745 31.1678 145.639 31.5698C145.533 31.9718 145.48 32.4183 145.48 32.9092V33.8423C145.48 34.2951 145.527 34.7204 145.62 35.1182C145.717 35.516 145.863 35.8651 146.058 36.1655C146.253 36.466 146.5 36.703 146.801 36.8765C147.101 37.0457 147.457 37.1304 147.867 37.1304C148.388 37.1304 148.802 37.0479 149.111 36.8828C149.42 36.7178 149.653 36.4808 149.81 36.1719C149.97 35.863 150.085 35.4927 150.152 35.061Z" fill="#343D52"/>
<path d="M157.522 34.1089V35.061H153.891V34.1089H157.522ZM154.139 31.1318V38H152.964V31.1318H154.139ZM158.474 31.1318V38H157.293V31.1318H158.474Z" fill="#343D52"/>
<path d="M161.635 36.1401L164.803 31.1318H165.983V38H164.803V32.9917L161.635 38H160.467V31.1318H161.635V36.1401Z" fill="#343D52"/>
<path d="M171.817 36.4385L174.153 31.1318H175.283L172.223 38H171.411L168.364 31.1318H169.494L171.817 36.4385ZM169.151 31.1318V38H167.977V31.1318H169.151ZM174.445 38V31.1318H175.625V38H174.445Z" fill="#343D52"/>
<path d="M181.567 36.8257V33.29C181.567 33.0192 181.512 32.7843 181.402 32.5854C181.296 32.3823 181.135 32.2257 180.919 32.1157C180.704 32.0057 180.437 31.9507 180.12 31.9507C179.823 31.9507 179.563 32.0015 179.339 32.103C179.119 32.2046 178.945 32.3379 178.818 32.5029C178.696 32.668 178.634 32.8457 178.634 33.0361H177.46C177.46 32.7907 177.523 32.5474 177.65 32.3062C177.777 32.0649 177.959 31.847 178.196 31.6523C178.438 31.4535 178.725 31.2969 179.06 31.1826C179.398 31.0641 179.775 31.0049 180.189 31.0049C180.689 31.0049 181.129 31.0895 181.51 31.2588C181.895 31.4281 182.195 31.6841 182.411 32.0269C182.631 32.3654 182.741 32.7907 182.741 33.3027V36.502C182.741 36.7305 182.76 36.9738 182.798 37.2319C182.841 37.4901 182.902 37.7122 182.982 37.8984V38H181.757C181.698 37.8646 181.652 37.6847 181.618 37.4604C181.584 37.2319 181.567 37.0203 181.567 36.8257ZM181.77 33.8359L181.783 34.6611H180.596C180.261 34.6611 179.963 34.6886 179.701 34.7437C179.438 34.7944 179.218 34.8727 179.041 34.9785C178.863 35.0843 178.727 35.2176 178.634 35.3784C178.541 35.535 178.495 35.7191 178.495 35.9307C178.495 36.1465 178.543 36.3433 178.641 36.521C178.738 36.6987 178.884 36.8405 179.079 36.9463C179.278 37.0479 179.521 37.0986 179.809 37.0986C180.168 37.0986 180.486 37.0225 180.761 36.8701C181.036 36.7178 181.254 36.5316 181.415 36.3115C181.58 36.0915 181.668 35.8778 181.681 35.6704L182.183 36.2354C182.153 36.4131 182.073 36.6099 181.941 36.8257C181.81 37.0415 181.635 37.2489 181.415 37.4478C181.199 37.6424 180.941 37.8053 180.64 37.9365C180.344 38.0635 180.01 38.127 179.637 38.127C179.172 38.127 178.763 38.036 178.412 37.854C178.065 37.672 177.794 37.4287 177.6 37.124C177.409 36.8151 177.314 36.4702 177.314 36.0894C177.314 35.7212 177.386 35.3975 177.53 35.1182C177.674 34.8346 177.881 34.5998 178.152 34.4136C178.423 34.2231 178.749 34.0793 179.129 33.9819C179.51 33.8846 179.936 33.8359 180.405 33.8359H181.77Z" fill="#343D52"/>
<path d="M187.438 38.127C186.96 38.127 186.527 38.0465 186.137 37.8857C185.752 37.7207 185.42 37.4901 185.141 37.1938C184.866 36.8976 184.654 36.5464 184.506 36.1401C184.358 35.7339 184.284 35.2896 184.284 34.8071V34.5405C184.284 33.9819 184.366 33.4847 184.531 33.0488C184.696 32.6087 184.921 32.2363 185.204 31.9316C185.488 31.627 185.809 31.3963 186.169 31.2397C186.529 31.0832 186.901 31.0049 187.286 31.0049C187.777 31.0049 188.2 31.0895 188.556 31.2588C188.915 31.4281 189.209 31.665 189.438 31.9697C189.667 32.2702 189.836 32.6257 189.946 33.0361C190.056 33.4424 190.111 33.8867 190.111 34.3691V34.896H184.982V33.9375H188.937V33.8486C188.92 33.5439 188.856 33.2477 188.746 32.96C188.64 32.6722 188.471 32.4352 188.238 32.249C188.006 32.0628 187.688 31.9697 187.286 31.9697C187.02 31.9697 186.774 32.0269 186.55 32.1411C186.326 32.2511 186.133 32.4162 185.972 32.6362C185.811 32.8563 185.687 33.125 185.598 33.4424C185.509 33.7598 185.464 34.1258 185.464 34.5405V34.8071C185.464 35.133 185.509 35.4398 185.598 35.7275C185.691 36.0111 185.824 36.2607 185.998 36.4766C186.175 36.6924 186.389 36.8617 186.639 36.9844C186.893 37.1071 187.18 37.1685 187.502 37.1685C187.917 37.1685 188.268 37.0838 188.556 36.9146C188.843 36.7453 189.095 36.5189 189.311 36.2354L190.022 36.8003C189.874 37.0246 189.686 37.2383 189.457 37.4414C189.229 37.6445 188.947 37.8096 188.613 37.9365C188.283 38.0635 187.891 38.127 187.438 38.127Z" fill="#343D52"/>
<path d="M194.205 31.1318V38H193.024V31.1318H194.205ZM196.509 31.1318V32.084H190.765V31.1318H196.509Z" fill="#343D52"/>
<path d="M199.905 37.1621C200.185 37.1621 200.443 37.105 200.68 36.9907C200.917 36.8765 201.111 36.7199 201.264 36.521C201.416 36.3179 201.503 36.0872 201.524 35.8291H202.641C202.62 36.2354 202.482 36.6141 202.229 36.9653C201.979 37.3123 201.651 37.5938 201.245 37.8096C200.838 38.0212 200.392 38.127 199.905 38.127C199.389 38.127 198.938 38.036 198.553 37.854C198.172 37.672 197.855 37.4224 197.601 37.105C197.351 36.7876 197.163 36.4237 197.036 36.0132C196.913 35.5985 196.852 35.1605 196.852 34.6992V34.4326C196.852 33.9714 196.913 33.5355 197.036 33.125C197.163 32.7103 197.351 32.3442 197.601 32.0269C197.855 31.7095 198.172 31.4598 198.553 31.2778C198.938 31.0959 199.389 31.0049 199.905 31.0049C200.443 31.0049 200.912 31.1149 201.314 31.335C201.716 31.5508 202.032 31.847 202.26 32.2236C202.493 32.596 202.62 33.0192 202.641 33.4932H201.524C201.503 33.2096 201.422 32.9536 201.283 32.7251C201.147 32.4966 200.961 32.3146 200.724 32.1792C200.491 32.0396 200.218 31.9697 199.905 31.9697C199.546 31.9697 199.243 32.0417 198.998 32.1855C198.756 32.3252 198.564 32.5156 198.42 32.7568C198.28 32.9938 198.179 33.2583 198.115 33.5503C198.056 33.8381 198.026 34.1322 198.026 34.4326V34.6992C198.026 34.9997 198.056 35.2959 198.115 35.5879C198.174 35.8799 198.274 36.1444 198.414 36.3813C198.557 36.6183 198.75 36.8088 198.991 36.9526C199.237 37.0923 199.541 37.1621 199.905 37.1621Z" fill="#343D52"/>
<path d="M205.352 34.7246H206.621L204.634 38H203.365L205.352 34.7246ZM206.335 31.1318H209.205V38H208.03V32.084H206.335C206.001 32.084 205.728 32.1411 205.517 32.2554C205.305 32.3654 205.151 32.5093 205.053 32.687C204.956 32.8647 204.907 33.0488 204.907 33.2393C204.907 33.4255 204.952 33.6053 205.041 33.7788C205.129 33.9481 205.269 34.0877 205.459 34.1978C205.65 34.3078 205.895 34.3628 206.196 34.3628H208.348V35.3276H206.196C205.802 35.3276 205.453 35.2747 205.148 35.1689C204.844 35.0632 204.586 34.9172 204.374 34.731C204.162 34.5405 204.002 34.3184 203.892 34.0645C203.782 33.8063 203.727 33.527 203.727 33.2266C203.727 32.9261 203.784 32.6489 203.898 32.395C204.016 32.1411 204.186 31.9189 204.406 31.7285C204.63 31.5381 204.903 31.3921 205.225 31.2905C205.55 31.1847 205.921 31.1318 206.335 31.1318Z" fill="#343D52"/>
<path d="M147.144 50.1621C147.423 50.1621 147.681 50.105 147.918 49.9907C148.155 49.8765 148.35 49.7199 148.502 49.521C148.654 49.3179 148.741 49.0872 148.762 48.8291H149.879C149.858 49.2354 149.721 49.6141 149.467 49.9653C149.217 50.3123 148.889 50.5938 148.483 50.8096C148.077 51.0212 147.63 51.127 147.144 51.127C146.627 51.127 146.177 51.036 145.792 50.854C145.411 50.672 145.093 50.4224 144.839 50.105C144.59 49.7876 144.401 49.4237 144.274 49.0132C144.152 48.5985 144.09 48.1605 144.09 47.6992V47.4326C144.09 46.9714 144.152 46.5355 144.274 46.125C144.401 45.7103 144.59 45.3442 144.839 45.0269C145.093 44.7095 145.411 44.4598 145.792 44.2778C146.177 44.0959 146.627 44.0049 147.144 44.0049C147.681 44.0049 148.151 44.1149 148.553 44.335C148.955 44.5508 149.27 44.847 149.499 45.2236C149.731 45.596 149.858 46.0192 149.879 46.4932H148.762C148.741 46.2096 148.661 45.9536 148.521 45.7251C148.386 45.4966 148.199 45.3146 147.962 45.1792C147.73 45.0396 147.457 44.9697 147.144 44.9697C146.784 44.9697 146.481 45.0417 146.236 45.1855C145.995 45.3252 145.802 45.5156 145.658 45.7568C145.519 45.9938 145.417 46.2583 145.354 46.5503C145.294 46.8381 145.265 47.1322 145.265 47.4326V47.6992C145.265 47.9997 145.294 48.2959 145.354 48.5879C145.413 48.8799 145.512 49.1444 145.652 49.3813C145.796 49.6183 145.988 49.8088 146.229 49.9526C146.475 50.0923 146.78 50.1621 147.144 50.1621Z" fill="#343D52"/>
<path d="M154.05 51.127C153.572 51.127 153.138 51.0465 152.749 50.8857C152.363 50.7207 152.031 50.4901 151.752 50.1938C151.477 49.8976 151.265 49.5464 151.117 49.1401C150.969 48.7339 150.895 48.2896 150.895 47.8071V47.5405C150.895 46.9819 150.978 46.4847 151.143 46.0488C151.308 45.6087 151.532 45.2363 151.815 44.9316C152.099 44.627 152.421 44.3963 152.78 44.2397C153.14 44.0832 153.512 44.0049 153.897 44.0049C154.388 44.0049 154.812 44.0895 155.167 44.2588C155.527 44.4281 155.821 44.665 156.049 44.9697C156.278 45.2702 156.447 45.6257 156.557 46.0361C156.667 46.4424 156.722 46.8867 156.722 47.3691V47.896H151.593V46.9375H155.548V46.8486C155.531 46.5439 155.467 46.2477 155.357 45.96C155.252 45.6722 155.082 45.4352 154.85 45.249C154.617 45.0628 154.299 44.9697 153.897 44.9697C153.631 44.9697 153.385 45.0269 153.161 45.1411C152.937 45.2511 152.744 45.4162 152.583 45.6362C152.423 45.8563 152.298 46.125 152.209 46.4424C152.12 46.7598 152.076 47.1258 152.076 47.5405V47.8071C152.076 48.133 152.12 48.4398 152.209 48.7275C152.302 49.0111 152.435 49.2607 152.609 49.4766C152.787 49.6924 153 49.8617 153.25 49.9844C153.504 50.1071 153.792 50.1685 154.113 50.1685C154.528 50.1685 154.879 50.0838 155.167 49.9146C155.455 49.7453 155.707 49.5189 155.922 49.2354L156.633 49.8003C156.485 50.0246 156.297 50.2383 156.068 50.4414C155.84 50.6445 155.558 50.8096 155.224 50.9365C154.894 51.0635 154.503 51.127 154.05 51.127Z" fill="#343D52"/>
<path d="M159.363 49.1401L162.53 44.1318H163.711V51H162.53V45.9917L159.363 51H158.195V44.1318H159.363V49.1401ZM161.889 41.6436H162.841C162.841 41.9736 162.765 42.2677 162.613 42.5259C162.46 42.7798 162.243 42.9787 161.959 43.1226C161.675 43.2664 161.339 43.3384 160.95 43.3384C160.361 43.3384 159.896 43.1818 159.553 42.8687C159.215 42.5513 159.045 42.1429 159.045 41.6436H159.998C159.998 41.8932 160.069 42.1133 160.213 42.3037C160.357 42.4941 160.603 42.5894 160.95 42.5894C161.288 42.5894 161.529 42.4941 161.673 42.3037C161.817 42.1133 161.889 41.8932 161.889 41.6436Z" fill="#343D52"/>
<path d="M170.776 44.1318V51H169.602V44.1318H170.776ZM170.376 47.2866V48.2515C170.139 48.3403 169.898 48.4207 169.652 48.4927C169.411 48.5604 169.155 48.6154 168.884 48.6577C168.618 48.6958 168.328 48.7148 168.015 48.7148C167.473 48.7148 167.003 48.6217 166.605 48.4355C166.208 48.2451 165.901 47.9595 165.685 47.5786C165.469 47.1935 165.361 46.709 165.361 46.125V44.1191H166.536V46.125C166.536 46.5059 166.593 46.8148 166.707 47.0518C166.821 47.2887 166.988 47.4644 167.208 47.5786C167.429 47.6886 167.697 47.7437 168.015 47.7437C168.319 47.7437 168.605 47.7246 168.872 47.6865C169.142 47.6442 169.401 47.5892 169.646 47.5215C169.896 47.4538 170.139 47.3755 170.376 47.2866Z" fill="#343D52"/>
<path d="M176.717 49.8257V46.29C176.717 46.0192 176.662 45.7843 176.552 45.5854C176.446 45.3823 176.286 45.2257 176.07 45.1157C175.854 45.0057 175.587 44.9507 175.27 44.9507C174.974 44.9507 174.714 45.0015 174.489 45.103C174.269 45.2046 174.096 45.3379 173.969 45.5029C173.846 45.668 173.785 45.8457 173.785 46.0361H172.61C172.61 45.7907 172.674 45.5474 172.801 45.3062C172.928 45.0649 173.11 44.847 173.347 44.6523C173.588 44.4535 173.876 44.2969 174.21 44.1826C174.549 44.0641 174.925 44.0049 175.34 44.0049C175.839 44.0049 176.279 44.0895 176.66 44.2588C177.045 44.4281 177.346 44.6841 177.562 45.0269C177.782 45.3654 177.892 45.7907 177.892 46.3027V49.502C177.892 49.7305 177.911 49.9738 177.949 50.2319C177.991 50.4901 178.052 50.7122 178.133 50.8984V51H176.908C176.848 50.8646 176.802 50.6847 176.768 50.4604C176.734 50.2319 176.717 50.0203 176.717 49.8257ZM176.92 46.8359L176.933 47.6611H175.746C175.412 47.6611 175.113 47.6886 174.851 47.7437C174.589 47.7944 174.369 47.8727 174.191 47.9785C174.013 48.0843 173.878 48.2176 173.785 48.3784C173.692 48.535 173.645 48.7191 173.645 48.9307C173.645 49.1465 173.694 49.3433 173.791 49.521C173.888 49.6987 174.034 49.8405 174.229 49.9463C174.428 50.0479 174.671 50.0986 174.959 50.0986C175.319 50.0986 175.636 50.0225 175.911 49.8701C176.186 49.7178 176.404 49.5316 176.565 49.3115C176.73 49.0915 176.819 48.8778 176.832 48.6704L177.333 49.2354C177.303 49.4131 177.223 49.6099 177.092 49.8257C176.961 50.0415 176.785 50.2489 176.565 50.4478C176.349 50.6424 176.091 50.8053 175.791 50.9365C175.494 51.0635 175.16 51.127 174.788 51.127C174.322 51.127 173.914 51.036 173.562 50.854C173.215 50.672 172.945 50.4287 172.75 50.124C172.56 49.8151 172.464 49.4702 172.464 49.0894C172.464 48.7212 172.536 48.3975 172.68 48.1182C172.824 47.8346 173.031 47.5998 173.302 47.4136C173.573 47.2231 173.899 47.0793 174.28 46.9819C174.661 46.8846 175.086 46.8359 175.556 46.8359H176.92Z" fill="#343D52"/>
<path d="M182.487 50.1621C182.767 50.1621 183.025 50.105 183.262 49.9907C183.499 49.8765 183.693 49.7199 183.846 49.521C183.998 49.3179 184.085 49.0872 184.106 48.8291H185.223C185.202 49.2354 185.064 49.6141 184.811 49.9653C184.561 50.3123 184.233 50.5938 183.827 50.8096C183.42 51.0212 182.974 51.127 182.487 51.127C181.971 51.127 181.52 51.036 181.135 50.854C180.754 50.672 180.437 50.4224 180.183 50.105C179.933 49.7876 179.745 49.4237 179.618 49.0132C179.495 48.5985 179.434 48.1605 179.434 47.6992V47.4326C179.434 46.9714 179.495 46.5355 179.618 46.125C179.745 45.7103 179.933 45.3442 180.183 45.0269C180.437 44.7095 180.754 44.4598 181.135 44.2778C181.52 44.0959 181.971 44.0049 182.487 44.0049C183.025 44.0049 183.494 44.1149 183.896 44.335C184.299 44.5508 184.614 44.847 184.842 45.2236C185.075 45.596 185.202 46.0192 185.223 46.4932H184.106C184.085 46.2096 184.004 45.9536 183.865 45.7251C183.729 45.4966 183.543 45.3146 183.306 45.1792C183.073 45.0396 182.8 44.9697 182.487 44.9697C182.128 44.9697 181.825 45.0417 181.58 45.1855C181.338 45.3252 181.146 45.5156 181.002 45.7568C180.862 45.9938 180.761 46.2583 180.697 46.5503C180.638 46.8381 180.608 47.1322 180.608 47.4326V47.6992C180.608 47.9997 180.638 48.2959 180.697 48.5879C180.757 48.8799 180.856 49.1444 180.996 49.3813C181.139 49.6183 181.332 49.8088 181.573 49.9526C181.819 50.0923 182.123 50.1621 182.487 50.1621Z" fill="#343D52"/>
<path d="M316.109 34.7314V35.728H311.107V34.7314H316.109ZM311.298 30.7578V40H310.073V30.7578H311.298ZM317.176 30.7578V40H315.957V30.7578H317.176Z" fill="#343D52"/>
<path d="M323.225 38.8257V35.29C323.225 35.0192 323.17 34.7843 323.06 34.5854C322.954 34.3823 322.793 34.2257 322.578 34.1157C322.362 34.0057 322.095 33.9507 321.778 33.9507C321.482 33.9507 321.221 34.0015 320.997 34.103C320.777 34.2046 320.604 34.3379 320.477 34.5029C320.354 34.668 320.292 34.8457 320.292 35.0361H319.118C319.118 34.7907 319.182 34.5474 319.309 34.3062C319.436 34.0649 319.618 33.847 319.854 33.6523C320.096 33.4535 320.383 33.2969 320.718 33.1826C321.056 33.0641 321.433 33.0049 321.848 33.0049C322.347 33.0049 322.787 33.0895 323.168 33.2588C323.553 33.4281 323.854 33.6841 324.069 34.0269C324.289 34.3654 324.399 34.7907 324.399 35.3027V38.502C324.399 38.7305 324.418 38.9738 324.457 39.2319C324.499 39.4901 324.56 39.7122 324.641 39.8984V40H323.416C323.356 39.8646 323.31 39.6847 323.276 39.4604C323.242 39.2319 323.225 39.0203 323.225 38.8257ZM323.428 35.8359L323.441 36.6611H322.254C321.92 36.6611 321.621 36.6886 321.359 36.7437C321.097 36.7944 320.876 36.8727 320.699 36.9785C320.521 37.0843 320.386 37.2176 320.292 37.3784C320.199 37.535 320.153 37.7191 320.153 37.9307C320.153 38.1465 320.201 38.3433 320.299 38.521C320.396 38.6987 320.542 38.8405 320.737 38.9463C320.936 39.0479 321.179 39.0986 321.467 39.0986C321.826 39.0986 322.144 39.0225 322.419 38.8701C322.694 38.7178 322.912 38.5316 323.073 38.3115C323.238 38.0915 323.327 37.8778 323.339 37.6704L323.841 38.2354C323.811 38.4131 323.731 38.6099 323.6 38.8257C323.468 39.0415 323.293 39.2489 323.073 39.4478C322.857 39.6424 322.599 39.8053 322.298 39.9365C322.002 40.0635 321.668 40.127 321.295 40.127C320.83 40.127 320.422 40.036 320.07 39.854C319.723 39.672 319.452 39.4287 319.258 39.124C319.067 38.8151 318.972 38.4702 318.972 38.0894C318.972 37.7212 319.044 37.3975 319.188 37.1182C319.332 36.8346 319.539 36.5998 319.81 36.4136C320.081 36.2231 320.407 36.0793 320.788 35.9819C321.168 35.8846 321.594 35.8359 322.063 35.8359H323.428Z" fill="#343D52"/>
<path d="M327.484 33.1318H328.659L328.557 35.7026C328.532 36.3543 328.458 36.9172 328.335 37.3911C328.212 37.8651 328.056 38.2692 327.865 38.6035C327.675 38.9336 327.461 39.2108 327.224 39.4351C326.991 39.6593 326.75 39.8477 326.5 40H325.917L325.948 39.0415L326.189 39.0352C326.329 38.8701 326.465 38.7008 326.596 38.5273C326.727 38.3496 326.847 38.1401 326.958 37.8989C327.068 37.6535 327.159 37.3551 327.23 37.0039C327.307 36.6484 327.355 36.2147 327.376 35.7026L327.484 33.1318ZM327.776 33.1318H331.909V40H330.734V34.2173H327.776V33.1318ZM325.65 39.0352H332.791V42.0249H331.617V40H326.824V42.0249H325.644L325.65 39.0352Z" fill="#343D52"/>
<path d="M333.781 36.6421V36.4961C333.781 36.001 333.853 35.5418 333.997 35.1187C334.141 34.6912 334.348 34.321 334.619 34.0078C334.89 33.6904 335.218 33.445 335.603 33.2715C335.988 33.0938 336.42 33.0049 336.898 33.0049C337.38 33.0049 337.814 33.0938 338.199 33.2715C338.589 33.445 338.919 33.6904 339.189 34.0078C339.465 34.321 339.674 34.6912 339.818 35.1187C339.962 35.5418 340.034 36.001 340.034 36.4961V36.6421C340.034 37.1372 339.962 37.5964 339.818 38.0195C339.674 38.4427 339.465 38.813 339.189 39.1304C338.919 39.4435 338.591 39.689 338.206 39.8667C337.825 40.0402 337.393 40.127 336.911 40.127C336.428 40.127 335.994 40.0402 335.609 39.8667C335.224 39.689 334.894 39.4435 334.619 39.1304C334.348 38.813 334.141 38.4427 333.997 38.0195C333.853 37.5964 333.781 37.1372 333.781 36.6421ZM334.956 36.4961V36.6421C334.956 36.9849 334.996 37.3086 335.076 37.6133C335.157 37.9137 335.277 38.1803 335.438 38.4131C335.603 38.6458 335.808 38.8299 336.054 38.9653C336.299 39.0965 336.585 39.1621 336.911 39.1621C337.232 39.1621 337.514 39.0965 337.755 38.9653C338 38.8299 338.203 38.6458 338.364 38.4131C338.525 38.1803 338.646 37.9137 338.726 37.6133C338.811 37.3086 338.853 36.9849 338.853 36.6421V36.4961C338.853 36.1576 338.811 35.8381 338.726 35.5376C338.646 35.2329 338.523 34.9642 338.358 34.7314C338.197 34.4945 337.994 34.3083 337.749 34.1729C337.507 34.0374 337.224 33.9697 336.898 33.9697C336.576 33.9697 336.293 34.0374 336.047 34.1729C335.806 34.3083 335.603 34.4945 335.438 34.7314C335.277 34.9642 335.157 35.2329 335.076 35.5376C334.996 35.8381 334.956 36.1576 334.956 36.4961Z" fill="#343D52"/>
<path d="M347.479 39.1621C347.759 39.1621 348.017 39.105 348.254 38.9907C348.491 38.8765 348.686 38.7199 348.838 38.521C348.99 38.3179 349.077 38.0872 349.098 37.8291H350.215C350.194 38.2354 350.057 38.6141 349.803 38.9653C349.553 39.3123 349.225 39.5938 348.819 39.8096C348.413 40.0212 347.966 40.127 347.479 40.127C346.963 40.127 346.513 40.036 346.127 39.854C345.747 39.672 345.429 39.4224 345.175 39.105C344.926 38.7876 344.737 38.4237 344.61 38.0132C344.488 37.5985 344.426 37.1605 344.426 36.6992V36.4326C344.426 35.9714 344.488 35.5355 344.61 35.125C344.737 34.7103 344.926 34.3442 345.175 34.0269C345.429 33.7095 345.747 33.4598 346.127 33.2778C346.513 33.0959 346.963 33.0049 347.479 33.0049C348.017 33.0049 348.487 33.1149 348.889 33.335C349.291 33.5508 349.606 33.847 349.834 34.2236C350.067 34.596 350.194 35.0192 350.215 35.4932H349.098C349.077 35.2096 348.997 34.9536 348.857 34.7251C348.722 34.4966 348.535 34.3146 348.298 34.1792C348.066 34.0396 347.793 33.9697 347.479 33.9697C347.12 33.9697 346.817 34.0417 346.572 34.1855C346.331 34.3252 346.138 34.5156 345.994 34.7568C345.854 34.9938 345.753 35.2583 345.689 35.5503C345.63 35.8381 345.601 36.1322 345.601 36.4326V36.6992C345.601 36.9997 345.63 37.2959 345.689 37.5879C345.749 37.8799 345.848 38.1444 345.988 38.3813C346.132 38.6183 346.324 38.8088 346.565 38.9526C346.811 39.0923 347.116 39.1621 347.479 39.1621Z" fill="#343D52"/>
<path d="M356.195 36.1089V37.061H352.564V36.1089H356.195ZM352.812 33.1318V40H351.637V33.1318H352.812ZM357.147 33.1318V40H355.966V33.1318H357.147Z" fill="#343D52"/>
<path d="M360.429 36.7246H361.698L359.711 40H358.442L360.429 36.7246ZM361.413 33.1318H364.282V40H363.107V34.084H361.413C361.078 34.084 360.805 34.1411 360.594 34.2554C360.382 34.3654 360.228 34.5093 360.13 34.687C360.033 34.8647 359.984 35.0488 359.984 35.2393C359.984 35.4255 360.029 35.6053 360.118 35.7788C360.207 35.9481 360.346 36.0877 360.537 36.1978C360.727 36.3078 360.972 36.3628 361.273 36.3628H363.425V37.3276H361.273C360.879 37.3276 360.53 37.2747 360.226 37.1689C359.921 37.0632 359.663 36.9172 359.451 36.731C359.24 36.5405 359.079 36.3184 358.969 36.0645C358.859 35.8063 358.804 35.527 358.804 35.2266C358.804 34.9261 358.861 34.6489 358.975 34.395C359.094 34.1411 359.263 33.9189 359.483 33.7285C359.707 33.5381 359.98 33.3921 360.302 33.2905C360.628 33.1847 360.998 33.1318 361.413 33.1318Z" fill="#343D52"/>
<path d="M368.973 33.1318V40H367.792V33.1318H368.973ZM371.277 33.1318V34.084H365.532V33.1318H371.277Z" fill="#343D52"/>
<path d="M373.397 35.4932H375.46C376.014 35.4932 376.482 35.5905 376.863 35.7852C377.244 35.9756 377.531 36.2401 377.726 36.5786C377.925 36.9129 378.024 37.2938 378.024 37.7212C378.024 38.0386 377.969 38.3369 377.859 38.6162C377.749 38.8913 377.584 39.1325 377.364 39.3398C377.148 39.5472 376.88 39.7101 376.558 39.8286C376.241 39.9429 375.875 40 375.46 40H372.54V33.1318H373.714V39.0352H375.46C375.799 39.0352 376.069 38.9738 376.272 38.8511C376.476 38.7284 376.622 38.5697 376.71 38.375C376.799 38.1803 376.844 37.9772 376.844 37.7656C376.844 37.5583 376.799 37.3551 376.71 37.1562C376.622 36.9574 376.476 36.7923 376.272 36.6611C376.069 36.5257 375.799 36.458 375.46 36.458H373.397V35.4932Z" fill="#343D52"/>
</g>
<path d="M0 13C0 9.96243 2.46243 7.5 5.5 7.5H118.5C121.538 7.5 124 9.96243 124 13C124 16.0376 121.538 18.5 118.5 18.5H5.5C2.46243 18.5 0 16.0376 0 13Z" fill="#050505" fill-opacity="0.9"/>
<path d="M124 51V24C124 18.4772 128.477 14 134 14H391.5" stroke="url(#paint0_linear_6_311)" stroke-width="11" stroke-linecap="round"/>
<g filter="url(#filter0_d_6_311)">
<path d="M278.5 15L241.5 30L250.133 15L241.5 0L278.5 15Z" fill="url(#paint1_linear_6_311)"/>
</g>
<defs>
<filter id="filter0_d_6_311" x="237.5" y="0" width="45" height="38" filterUnits="userSpaceOnUse" color-interpolation-filters="sRGB">
<feFlood flood-opacity="0" result="BackgroundImageFix"/>
<feColorMatrix in="SourceAlpha" type="matrix" values="0 0 0 0 0 0 0 0 0 0 0 0 0 0 0 0 0 0 127 0" result="hardAlpha"/>
<feOffset dy="4"/>
<feGaussianBlur stdDeviation="2"/>
<feComposite in2="hardAlpha" operator="out"/>
<feColorMatrix type="matrix" values="0 0 0 0 0.779167 0 0 0 0 0.566194 0 0 0 0 0.379844 0 0 0 0.25 0"/>
<feBlend mode="normal" in2="BackgroundImageFix" result="effect1_dropShadow_6_311"/>
<feBlend mode="normal" in="SourceGraphic" in2="effect1_dropShadow_6_311" result="shape"/>
</filter>
<linearGradient id="paint0_linear_6_311" x1="257.5" y1="14" x2="170" y2="14" gradientUnits="userSpaceOnUse">
<stop stop-color="#2EE400"/>
<stop offset="0.0001" stop-color="#FF0000"/>
</linearGradient>
<linearGradient id="paint1_linear_6_311" x1="260" y1="15" x2="260" y2="17" gradientUnits="userSpaceOnUse">
<stop stop-color="#FFD900"/>
<stop offset="1" stop-color="#FFA742"/>
</linearGradient>
</defs>
</svg>
