<svg width="85" height="353" viewBox="0 0 85 353" fill="none" xmlns="http://www.w3.org/2000/svg">
<path d="M73.6236 6.36402C73.8671 3.33622 71.6099 0.684327 68.5822 0.440839C65.5544 0.197351 62.9025 2.45447 62.659 5.48227L61.0594 25.3726C60.9467 26.7739 61.9914 28.0012 63.3927 28.1139L69.2827 28.5876C70.684 28.7003 71.9114 27.6556 72.024 26.2543L73.6236 6.36402Z" fill="#9C89FA"/>
<circle cx="2.5" cy="2.5" r="2.5" transform="matrix(-0.996782 -0.0801591 -0.0801591 0.996782 70.834 3.63171)" fill="#F1F1F1"/>
<rect width="3" height="2" transform="matrix(-0.996782 -0.0801591 -0.0801591 0.996782 67.832 28.4711)" fill="#60A8F0"/>
<rect width="1" height="96" transform="matrix(-0.996782 -0.0801591 -0.0801591 0.996782 66.6758 30.3844)" fill="#9C89FA"/>
<path d="M1.94368 202.522C3.01493 203.896 3.08914 204.814 3.70032 204.508C3.70032 204.508 3.75969 204.533 3.8285 204.469C3.71921 205.981 3.76104 207.691 3.54921 209.091C3.3185 210.617 3.16605 211.687 3.01494 212.833C2.86114 213.977 3.24295 215.276 3.70032 216.268C4.1442 217.225 4.66501 219.037 6.26784 221.823C6.27324 222.325 6.30427 222.837 6.37848 223.372C6.98966 225.358 8.05956 226.58 8.51828 228.107C8.97565 229.635 9.89309 233.301 10.0469 235.746C10.1994 238.19 10.6581 245.675 10.6581 254.994C10.6581 264.312 10.1993 283.559 10.5043 287.53C10.8119 291.503 11.8818 295.016 11.5769 297.764C11.2706 300.514 9.5882 304.334 9.89312 307.847C10.2007 311.361 11.7307 314.873 11.8818 317.622C12.0356 320.372 11.1182 323.886 10.2007 326.177C9.28328 328.469 8.82456 328.469 9.13082 332.441C9.43574 336.411 10.3559 339.314 10.5056 340.842C10.5906 341.676 10.5474 342.175 10.7566 342.246C10.3019 342.947 9.14161 344.565 7.8329 345.042C6.15182 345.654 3.78264 345.958 3.70304 349.165C3.39812 349.622 2.86249 350.312 3.85818 350.997C6.45671 351.153 11.7307 352.144 15.9361 352.144C20.1415 352.144 21.4408 351.915 21.4408 351.229C22.3582 351.612 22.6645 351.612 22.6645 351.612C22.6645 351.612 24.9568 351.458 25.7973 351.229C26.6378 350.998 26.7147 350.465 26.5623 349.7C26.4152 348.96 26.6189 346.591 26.1467 345.816C26.2587 345.71 26.3383 345.253 26.7147 344.201C27.4797 342.063 29.6209 338.701 30.232 336.716C30.8432 334.731 30.8432 333.355 29.7733 331.674C28.7021 329.993 28.7021 329.078 28.7021 326.634C28.7021 324.19 28.5496 319.303 28.7021 315.941C28.8559 312.581 29.0097 305.554 29.1595 300.971C29.3133 296.388 29.7733 290.889 30.232 286.918C30.6894 282.947 30.6894 275.155 31.6082 272.254C32.5243 269.351 33.1369 265.837 33.748 262.936C34.3592 260.032 33.9005 257.742 34.8179 254.228C35.6207 251.152 35.3697 249.598 35.7043 247.108C35.9013 246.2 36.2143 244.807 36.4977 243.765C36.5719 243.496 36.6434 243.191 36.7162 242.896C37.121 241.668 37.4799 240.606 37.5703 238.799C37.6917 236.356 38.4027 233.53 39.2284 233.901C39.25 233.914 39.2716 233.917 39.2932 233.935C39.3053 233.943 39.3161 233.958 39.3283 233.966C40.3658 234.955 41.1618 241.32 41.1618 241.32C41.1618 241.32 41.1726 241.224 41.1901 241.075C41.7123 244.539 42.1872 248.728 42.6149 252.395C43.3799 258.963 42.4611 273.626 43.6848 279.127C44.9085 284.626 44.9786 292.516 45.4401 296.947C45.8974 301.378 45.8259 313.497 45.9784 318.385C46.1322 323.274 44.6022 329.229 44.9085 332.746C45.2134 336.259 46.4371 339.314 46.5896 341.299C46.7434 343.287 46.5896 345.119 46.5896 345.119C46.5896 345.119 46.7245 345.115 46.9215 345.101C46.9188 345.105 46.9147 345.111 46.912 345.116C46.912 345.116 46.8999 345.119 46.8958 345.119C46.8958 345.119 46.9026 345.124 46.9053 345.125C46.4614 345.743 45.8192 346.921 46.1322 348.327C46.2077 348.939 46.1322 349.855 46.514 350.237C46.8958 350.618 52.9348 351.534 52.9348 351.534L57.2926 350.771C57.2926 350.771 57.5207 351.304 58.0563 352.069C58.5919 352.833 59.8912 353.061 64.8602 352.987C69.8293 352.908 76.25 352.144 78.2374 351.764C80.2274 351.381 80.8386 350.312 80.3799 349.548C79.9212 348.785 79.9967 347.79 79.082 346.952C78.1632 346.112 76.9408 345.884 74.9521 345.884C73.1658 345.884 69.4029 346.667 66.1069 341.948C66.1069 341.888 66.0353 341.725 65.6643 341.296C65.5658 341.138 65.4714 340.958 65.3742 340.789C65.0235 337.644 66.826 337.624 66.3781 335.532C65.9193 333.394 65.7844 330.421 65.0194 328.738C64.2531 327.059 65.1382 322.047 65.2893 318.685C65.4431 315.325 64.7442 304.849 65.0518 299.198C65.3567 293.546 64.2868 284.534 64.7455 280.105C65.2056 275.674 66.3106 260.952 67.2294 251.023C68.1468 241.094 67.4655 236.631 70.4391 229.636C71.366 227.458 73.1671 224.99 73.0754 221.856C73.0997 221.997 73.1118 222.096 73.1118 222.096C73.1118 222.096 73.7284 220.701 74.9508 217.34C76.1731 213.978 76.7088 212.603 76.7857 210.772C76.8626 208.94 77.2457 206.112 78.008 203.516C78.514 201.796 78.9835 200.088 79.2682 198.966C79.2843 198.973 79.306 198.974 79.3235 198.981C79.3437 198.99 79.3653 198.999 79.3855 199.009C79.4085 199.011 79.422 199.012 79.4436 199.013C79.6163 199.052 79.8119 199.061 80.0062 199.04C80.5769 199.05 80.6214 198.934 81.2177 198.399C81.9814 197.71 82.7463 197.558 83.4358 195.343C84.1239 193.127 85.5014 189.308 84.812 189.691C84.1239 190.072 83.054 188.698 83.054 188.698C83.054 188.698 82.9015 189.613 82.9771 186.787C83.054 183.962 83.054 178.463 83.1309 174.95C83.2064 171.437 83.054 164.561 81.9072 155.472C80.7603 146.384 79.6904 138.594 78.3898 135.309C77.1958 132.287 74.8779 130.172 70.8304 128.129C70.8277 128.079 70.825 128.018 70.8223 127.977C69.0643 126.829 57.9025 121.942 56.2969 121.18C55.6858 120.951 55.7613 121.407 55.7613 121.407C55.7613 121.407 55.764 121.426 55.7694 121.458C55.7694 121.458 55.7654 121.457 55.7627 121.455L55.7613 121.407L54.6914 120.799C53.8509 119.881 53.1628 116.214 52.6258 115.376C52.0969 114.542 51.0675 114.027 51.05 114.019C50.9555 112.49 51.0068 109.337 51.4035 108.806C52.0146 107.508 52.7796 106.058 53.3153 104.071C54.002 104.606 55.3026 103.766 55.9907 102.774C56.6788 101.782 57.6731 100.252 57.2899 98.0387C56.9081 95.824 55.6062 95.6703 55.6062 95.6703C55.9138 94.6782 55.6062 92.2344 54.9963 90.3244C54.3852 88.4143 53.8495 86.8885 52.2426 84.9771C50.6385 83.0684 49.5672 82.5332 48.268 81.9226C46.9687 81.312 45.5925 80.7 44.2919 80.4709C42.994 80.2417 41.8458 79.9371 39.0179 80.0112C36.1887 80.0881 34.5063 81.9213 33.8195 82.8379C33.1301 83.7545 31.6784 84.5956 29.1541 88.5653C26.6311 92.5377 29.0785 97.5804 29.2323 99.7169C28.1597 100.633 29.3079 103.306 29.5359 105.138C29.7666 106.972 30.912 106.515 31.3721 106.056C32.2896 109.263 33.5119 110.409 33.8182 111.479C34.0327 112.23 33.9828 114.827 33.9342 116.307C33.2462 116.384 33.2826 117.514 33.1287 118.735C32.979 119.958 32.7483 121.101 32.0602 122.935C32.0683 122.943 32.0831 122.961 32.0926 122.969C32.0872 122.972 32.0818 122.976 32.0777 122.978C32.0751 122.976 32.0696 122.97 32.0656 122.968C32.0643 122.96 32.0602 122.935 32.0602 122.935C32.0602 122.935 27.7023 125.302 24.7976 126.448C21.8928 127.595 16.5419 130.419 16.0831 130.956C16.0831 130.956 16.1034 131.142 16.1331 131.445C16.0953 131.468 16.0575 131.489 16.0197 131.512C15.7904 131.6 14.9282 131.945 14.4021 132.406C14.259 132.531 14.2064 132.63 14.2051 132.717C13.0232 133.634 11.9546 134.816 10.8078 136.837C8.51557 140.885 9.04984 143.863 8.51556 148.674C7.98129 153.485 5.15205 168.534 3.85279 176.093C2.55218 183.655 2.5522 192.669 2.6291 193.813C2.70466 194.959 3.16335 194.119 2.24726 194.654C1.32846 195.188 1.17602 195.875 0.48794 195.722C-0.200144 195.571 -0.0476951 196.334 0.259919 198.395C0.567533 200.46 0.873779 201.147 1.94368 202.522ZM67.4588 195.038C67.0014 192.059 66.9231 186.406 66.5426 182.206C66.1608 178.006 66.4644 177.089 66.1608 175.637C65.8546 174.187 65.7035 174.033 66.2377 172.429C66.7734 170.826 67.3859 169.756 67.3076 166.93C67.2955 166.462 67.2739 165.877 67.2483 165.222C67.3198 165.387 67.3724 165.565 67.4277 165.742C67.6166 166.997 67.7542 167.275 67.8419 168.151C67.9107 168.836 67.9485 169.717 67.9687 170.511C67.9755 171.003 67.9836 171.504 67.993 172.011C67.9944 172.253 67.9957 172.437 67.9957 172.503C67.9957 172.537 67.9998 172.532 68.0052 172.509C68.0187 172.987 68.0375 173.47 68.0713 173.955C68.3006 177.239 68.3789 178.995 68.9901 180.37C69.5999 181.743 69.4475 184.113 69.3719 185.03C69.2936 185.946 69.6768 187.321 69.2936 187.855C68.9793 188.297 68.4598 188.011 68.2871 187.898C68.2669 187.882 68.244 187.873 68.2237 187.855C68.2237 187.855 68.2237 188.468 68.53 190.3C68.8349 192.132 68.9132 192.592 69.1412 193.965C69.3719 195.342 69.2936 196.715 69.4475 197.404C69.4704 197.504 69.5122 197.601 69.5635 197.695C69.689 198.143 70.7642 198.827 70.7642 198.827C70.7642 198.827 70.7292 198.521 70.6698 198.015C70.6725 198.015 70.6765 198.015 70.6765 198.015C70.9761 200.528 71.2743 205.103 71.053 206.263C70.7467 207.868 70.0627 209.398 69.1412 210.312C68.472 210.975 68.1293 211.33 68.1293 211.33C68.1293 211.33 68.1792 211.409 68.2683 211.552C68.0025 211.18 67.7556 210.839 67.537 210.541C65.8546 208.25 66.1608 205.804 66.1608 204.737C66.1608 204.392 66.061 203.967 65.9315 203.551L65.9382 203.549L65.9099 203.479C65.7264 202.906 65.4943 202.371 65.3581 202.075C66.4212 201.972 66.1554 201.322 66.5426 200.824C67.0769 200.135 67.9175 198.017 67.4588 195.038ZM33.9383 116.314C33.9356 116.423 33.9329 116.528 33.9275 116.623C33.9099 116.457 33.9356 116.33 33.9383 116.314ZM15.3991 193.433C15.7054 191.981 16.6228 185.642 16.7753 184.191C16.9277 182.741 16.3179 182.51 16.8495 180.754C17.3851 178.999 18.0732 179.534 18.0732 177.547C18.0732 175.562 19.0689 175.256 18.6075 174.035C18.5913 173.993 18.5791 173.959 18.5643 173.919C18.54 173.758 18.5171 173.582 18.4928 173.381C18.8207 174.186 19.1053 174.517 19.2187 175.485C19.3725 176.784 18.9906 177.395 18.9137 178.541C18.8382 179.685 19.1431 180.451 18.7613 181.367C18.3795 182.284 17.7669 182.744 17.3837 184.423C17.0019 186.104 15.7013 194.122 15.6244 195.726C15.584 196.603 15.0794 199.321 14.8217 200.267C14.9741 198.935 15.2777 196.034 15.3195 195.65C15.3991 194.96 15.0929 194.885 15.3991 193.433ZM10.6581 203.82L10.5825 204.431C10.5825 204.431 12.1826 204.606 13.1392 204.179C13.2242 204.149 13.2863 204.117 13.3079 204.079C13.3672 204.044 13.4361 204.014 13.4873 203.972C14.3292 203.284 14.0985 202.139 14.5572 201.223C14.6557 201.026 14.7434 200.683 14.8217 200.267C15.0753 200.409 16.406 187 16.3004 200.824C16.7753 197.5 16.1897 201.142 16.1627 201.376C16.1182 201.751 16.0683 202.053 16.0171 202.317C15.6447 203.873 14.9067 206.423 13.718 208.402C13.065 209.488 11.813 210.714 10.5205 212.186C10.3127 211.874 9.92819 211.161 9.81756 210.006C9.6651 208.403 10.6581 203.82 10.6581 203.82Z" fill="url(#paint0_linear_0_1612)"/>
<path d="M17.7284 182.998C17.8566 182.559 18.2705 182.269 18.7276 182.292L66.7681 184.718C67.1795 184.739 67.5328 185.01 67.6249 185.412C67.8867 186.553 68.3131 189.127 67.9505 192.753C67.7217 195.041 67.5906 196.598 67.5205 197.508C67.4782 198.057 67.0056 198.476 66.4557 198.446L17.3271 195.8C16.8255 195.773 16.4227 195.38 16.3936 194.878C16.3032 193.322 16.1645 190.065 16.4506 188.253C16.7145 186.582 17.3793 184.195 17.7284 182.998Z" fill="#737AF7"/>
<defs>
<linearGradient id="paint0_linear_0_1612" x1="42.5" y1="79.9999" x2="42.5" y2="353" gradientUnits="userSpaceOnUse">
<stop offset="0.54" stop-color="#DAE3EF"/>
<stop offset="1" stop-color="#DCE3EE"/>
</linearGradient>
</defs>
</svg>
