<svg width="28" height="18" viewBox="0 0 28 18" fill="none" xmlns="http://www.w3.org/2000/svg">
<path d="M13.898 0C6.23423 0 0 6.23425 0 13.898C0 14.4465 0.444227 14.8907 0.992712 14.8907H2.97814C3.52662 14.8907 3.97085 14.4465 3.97085 13.898C3.97085 13.3495 3.52662 12.9053 2.97814 12.9053H2.02761C2.23856 10.3664 3.25733 8.05703 4.81464 6.21677L5.47602 6.87816C5.6696 7.07174 5.924 7.16853 6.17835 7.16853C6.43271 7.16853 6.68713 7.07174 6.88069 6.87816C7.2691 6.48975 7.2691 5.86311 6.88069 5.4747L6.21806 4.81455C8.05707 3.25725 10.3665 2.24341 12.9053 2.03247V2.97805C12.9053 3.52653 13.3495 3.97076 13.898 3.97076C14.4465 3.97076 14.8907 3.52653 14.8907 2.97805V2.03247C17.4296 2.24343 19.739 3.25601 21.5779 4.81455L20.9178 5.4747C20.5294 5.86311 20.5294 6.48975 20.9178 6.87816C21.1114 7.07174 21.3658 7.16853 21.6201 7.16853C21.8745 7.16853 22.1289 7.07174 22.3225 6.87816L22.9838 6.21801C24.5411 8.05703 25.5599 10.3664 25.7709 12.9065H24.8179C24.2694 12.9065 23.8252 13.3508 23.8252 13.8992C23.8252 14.4477 24.2694 14.892 24.8179 14.892H26.8033C27.3518 14.892 27.796 14.4477 27.796 13.8992C27.796 6.23421 21.5617 0 13.898 0Z" fill="url(#paint0_linear_6_330)"/>
<path d="M18.3002 12.5761C17.6655 11.6187 13.3672 7.95213 12.0671 6.849C11.7286 6.56292 11.2444 6.53479 10.8772 6.77968C10.51 7.02456 10.3483 7.48057 10.4795 7.90326C10.9893 9.52909 12.7038 14.9123 13.3401 15.8688C14.2487 17.2371 16.1 17.6108 17.4684 16.7022C18.1289 16.2646 18.5811 15.5925 18.7385 14.8129C18.8959 14.0332 18.7399 13.2383 18.3002 12.5761Z" fill="#999EA8"/>
<defs>
<linearGradient id="paint0_linear_6_330" x1="9.5" y1="-0.577449" x2="10.5527" y2="-1.0332" gradientUnits="userSpaceOnUse">
<stop stop-color="#999EA8"/>
<stop offset="1" stop-color="#FF0000"/>
</linearGradient>
</defs>
</svg>
