<svg width="28" height="17" viewBox="0 0 28 17" fill="none" xmlns="http://www.w3.org/2000/svg">
<g opacity="0.5">
<path d="M13.898 3.05176e-05C6.23423 3.05176e-05 0 6.23426 0 13.898C0 14.4465 0.444227 14.8907 0.992712 14.8907H2.97814C3.52662 14.8907 3.97085 14.4465 3.97085 13.898C3.97085 13.3495 3.52662 12.9053 2.97814 12.9053H2.02761C2.23856 10.3664 3.25733 8.05704 4.81464 6.21679L5.47602 6.87818C5.6696 7.07176 5.924 7.16854 6.17835 7.16854C6.43271 7.16854 6.68713 7.07175 6.88069 6.87818C7.2691 6.48976 7.2691 5.86313 6.88069 5.47472L6.21806 4.81457C8.05707 3.25727 10.3665 2.24343 12.9053 2.0325V2.97807C12.9053 3.52656 13.3495 3.97078 13.898 3.97078C14.4465 3.97078 14.8907 3.52656 14.8907 2.97807V2.0325C17.4296 2.24345 19.739 3.25603 21.5779 4.81457L20.9178 5.47472C20.5294 5.86313 20.5294 6.48976 20.9178 6.87818C21.1114 7.07176 21.3658 7.16854 21.6201 7.16854C21.8745 7.16854 22.1289 7.07175 22.3225 6.87818L22.9838 6.21803C24.5411 8.05704 25.5599 10.3665 25.7709 12.9065H24.8179C24.2694 12.9065 23.8252 13.3508 23.8252 13.8992C23.8252 14.4477 24.2694 14.892 24.8179 14.892H26.8033C27.3518 14.892 27.796 14.4477 27.796 13.8992C27.796 6.23423 21.5617 3.05176e-05 13.898 3.05176e-05Z" fill="#343D52"/>
<path d="M13.5219 15.9147C14.5374 15.378 18.6119 11.4643 19.8385 10.2799C20.1567 9.9714 20.2327 9.49235 20.0254 9.10272C19.8181 8.71309 19.3804 8.50699 18.9468 8.59559C17.2784 8.94175 11.7518 10.1144 10.737 10.6527C9.28533 11.4212 8.72994 13.2264 9.49848 14.6781C9.86844 15.3787 10.4924 15.8953 11.2526 16.1292C12.0129 16.3631 12.8193 16.2867 13.5219 15.9147Z" fill="#343D52"/>
</g>
</svg>
