<svg width="169" height="22" viewBox="0 0 169 22" fill="none" xmlns="http://www.w3.org/2000/svg">
<path fill-rule="evenodd" clip-rule="evenodd" d="M4.41805 2.30797C5.77409 1.40153 7.36835 0.917303 8.99944 0.916443C10.6312 0.917123 12.2261 1.40155 13.5825 2.30849C14.939 3.21543 15.9961 4.50417 16.6203 6.0118C17.2444 7.51943 17.4076 9.17826 17.0892 10.7786C16.7708 12.379 15.985 13.849 14.8313 15.0029C14.4418 15.3924 13.9148 15.8271 13.3449 16.2972C11.7299 17.6295 9.77016 19.2462 9.61636 20.9245C9.58611 21.2637 9.33861 21.5414 8.99944 21.5414C8.66027 21.5414 8.41369 21.2637 8.38252 20.9245C8.2287 19.246 6.26694 17.6271 4.65071 16.2933C4.08063 15.8229 3.55354 15.3879 3.16394 14.9983C2.01156 13.8439 1.22712 12.374 0.909708 10.7741C0.592299 9.17416 0.756159 7.51606 1.38059 6.00923C2.00502 4.50239 3.06201 3.21441 4.41805 2.30797ZM7.91982 11.7742C8.26225 11.916 8.62926 11.989 8.99991 11.989C9.74846 11.989 10.4664 11.6917 10.9957 11.1623C11.525 10.633 11.8223 9.91515 11.8223 9.16659C11.8223 8.41804 11.525 7.70015 10.9957 7.17084C10.4664 6.64154 9.74846 6.34418 8.99991 6.34418C8.62926 6.34418 8.26225 6.41718 7.91982 6.55902C7.57738 6.70086 7.26624 6.90876 7.00416 7.17084C6.74207 7.43293 6.53417 7.74407 6.39233 8.0865C6.25049 8.42893 6.17749 8.79595 6.17749 9.16659C6.17749 9.53724 6.25049 9.90425 6.39233 10.2467C6.53417 10.5891 6.74207 10.9003 7.00416 11.1623C7.26624 11.4244 7.57738 11.6323 7.91982 11.7742Z" fill="white"/>
<path d="M28.9478 10.5341H26.4023L25.7739 10.2739C25.0757 10.0538 24.5404 9.7195 24.168 9.27094C23.7956 8.82237 23.6094 8.25743 23.6094 7.57611C23.6094 6.96674 23.7448 6.45258 24.0156 6.03363C24.2865 5.61469 24.6715 5.2973 25.1709 5.08148C25.6745 4.86566 26.269 4.75775 26.9546 4.75775H30.0586V13.9999H28.459V6.02728H26.9546C26.3621 6.02728 25.922 6.17116 25.6343 6.45892C25.3465 6.74668 25.2026 7.14447 25.2026 7.65228C25.2026 7.99929 25.2661 8.29763 25.3931 8.5473C25.5243 8.79274 25.7168 8.98317 25.9707 9.11859C26.2288 9.24978 26.5483 9.31537 26.9292 9.31537H28.9478V10.5341ZM27.0054 9.82318L24.8599 13.9999H23.146L25.3169 9.82318H27.0054Z" fill="white"/>
<path d="M36.4507 10.0009V11.207H32.896V10.0009H36.4507ZM33.3403 7.13177V13.9999H31.8105V7.13177H33.3403ZM37.5552 7.13177V13.9999H36.0254V7.13177H37.5552Z" fill="white"/>
<path d="M40.4307 7.13177H41.9604L41.8843 9.55023C41.8631 10.2527 41.7827 10.8557 41.6431 11.3593C41.5034 11.8629 41.3215 12.2882 41.0972 12.6352C40.8729 12.978 40.619 13.2594 40.3354 13.4794C40.0562 13.6995 39.762 13.873 39.4531 13.9999H39.0024V12.7939L39.2183 12.7812C39.4002 12.5865 39.5568 12.3919 39.688 12.1972C39.8234 11.9983 39.9377 11.7804 40.0308 11.5434C40.1239 11.3022 40.1958 11.0208 40.2466 10.6992C40.3016 10.3775 40.3376 9.99457 40.3545 9.55023L40.4307 7.13177ZM40.8369 7.13177H45.1914V13.9999H43.668V8.4267H40.8369V7.13177ZM38.6533 12.7812H46.1309V16.0439H44.6011V13.9999H40.2021V16.0439H38.647L38.6533 12.7812Z" fill="white"/>
<path d="M50.2505 14.1269C49.7427 14.1269 49.2835 14.0444 48.873 13.8793C48.4668 13.7101 48.1198 13.4752 47.832 13.1747C47.5485 12.8743 47.3306 12.5209 47.1782 12.1147C47.0259 11.7084 46.9497 11.2704 46.9497 10.8007V10.5468C46.9497 10.0094 47.028 9.52273 47.1846 9.08685C47.3411 8.65098 47.5591 8.27858 47.8384 7.96967C48.1177 7.65651 48.4478 7.41742 48.8286 7.25238C49.2095 7.08734 49.6221 7.00482 50.0664 7.00482C50.5573 7.00482 50.9868 7.08734 51.355 7.25238C51.7231 7.41742 52.0278 7.65017 52.269 7.95062C52.5145 8.24685 52.6965 8.6002 52.8149 9.01068C52.9377 9.42116 52.999 9.87396 52.999 10.3691V11.0229H47.6924V9.92474H51.4883V9.80414C51.4798 9.52907 51.4248 9.27094 51.3232 9.02972C51.2259 8.78851 51.0757 8.59385 50.8726 8.44574C50.6694 8.29763 50.3986 8.22357 50.0601 8.22357C49.8062 8.22357 49.5798 8.27858 49.3809 8.38861C49.1862 8.49441 49.0233 8.64886 48.8921 8.85199C48.7609 9.05511 48.6593 9.30056 48.5874 9.58832C48.5197 9.87185 48.4858 10.1913 48.4858 10.5468V10.8007C48.4858 11.1012 48.526 11.3805 48.6064 11.6386C48.6911 11.8925 48.8138 12.1147 48.9746 12.3051C49.1354 12.4955 49.3301 12.6458 49.5586 12.7558C49.7871 12.8616 50.0474 12.9145 50.3394 12.9145C50.7075 12.9145 51.0355 12.8404 51.3232 12.6923C51.611 12.5442 51.8607 12.3347 52.0723 12.0639L52.8784 12.8447C52.7303 13.0605 52.5378 13.2678 52.3008 13.4667C52.0638 13.6614 51.7739 13.8201 51.4312 13.9428C51.0926 14.0655 50.6991 14.1269 50.2505 14.1269Z" fill="white"/>
<path d="M55.8428 7.13177V13.9999H54.313V7.13177H55.8428ZM60.3242 7.13177L57.2329 11.2641H55.4873L55.2842 9.88031H56.5601L58.4136 7.13177H60.3242ZM58.5342 13.9999L56.4648 11.0038L57.6709 10.1342L60.5464 13.9999H58.5342Z" fill="white"/>
<path d="M64.082 12.9081C64.3317 12.9081 64.556 12.8595 64.7549 12.7621C64.958 12.6606 65.1209 12.5209 65.2437 12.3432C65.3706 12.1655 65.4404 11.9602 65.4531 11.7275H66.894C66.8856 12.1718 66.7544 12.5759 66.5005 12.9399C66.2466 13.3038 65.9102 13.5937 65.4912 13.8095C65.0723 14.0211 64.6089 14.1269 64.1011 14.1269C63.5763 14.1269 63.1193 14.038 62.73 13.8603C62.3407 13.6783 62.0169 13.4286 61.7588 13.1113C61.5007 12.7939 61.306 12.4278 61.1748 12.0131C61.0479 11.5984 60.9844 11.1541 60.9844 10.6801V10.4579C60.9844 9.98399 61.0479 9.53965 61.1748 9.12494C61.306 8.70599 61.5007 8.33783 61.7588 8.02045C62.0169 7.70306 62.3407 7.45551 62.73 7.27777C63.1193 7.0958 63.5742 7.00482 64.0947 7.00482C64.6449 7.00482 65.1273 7.11485 65.542 7.3349C65.9567 7.55072 66.2826 7.85329 66.5195 8.24261C66.7607 8.62771 66.8856 9.07627 66.894 9.58832H65.4531C65.4404 9.33441 65.377 9.1059 65.2627 8.90277C65.1527 8.69541 64.9961 8.53038 64.793 8.40765C64.5941 8.28493 64.355 8.22357 64.0757 8.22357C63.7668 8.22357 63.5107 8.28705 63.3076 8.414C63.1045 8.53672 62.9458 8.70599 62.8315 8.92181C62.7173 9.1334 62.6348 9.3725 62.584 9.6391C62.5374 9.90147 62.5142 10.1744 62.5142 10.4579V10.6801C62.5142 10.9636 62.5374 11.2387 62.584 11.5053C62.6305 11.7719 62.7109 12.011 62.8252 12.2226C62.9437 12.43 63.1045 12.5971 63.3076 12.7241C63.5107 12.8468 63.7689 12.9081 64.082 12.9081Z" fill="white"/>
<path d="M73.0767 4.75775V13.9999H71.4897V4.75775H73.0767ZM78.6372 4.75775L74.8794 10.0263H72.626L72.4102 8.64252H73.9971L76.6885 4.75775H78.6372ZM77.0122 13.9999L74.0225 9.7851L75.0508 8.56L78.9229 13.9999H77.0122Z" fill="white"/>
<path d="M83.5566 12.6225V9.34711C83.5566 9.10166 83.5122 8.89008 83.4233 8.71234C83.3345 8.53461 83.1991 8.39707 83.0171 8.29974C82.8394 8.20241 82.6151 8.15375 82.3442 8.15375C82.0946 8.15375 81.8787 8.19607 81.6968 8.2807C81.5148 8.36534 81.373 8.47959 81.2715 8.62347C81.1699 8.76735 81.1191 8.93028 81.1191 9.11224H79.5957C79.5957 8.84141 79.6613 8.57904 79.7925 8.32513C79.9237 8.07123 80.1141 7.84483 80.3638 7.64594C80.6134 7.44704 80.9118 7.29047 81.2588 7.17621C81.6058 7.06195 81.9951 7.00482 82.4268 7.00482C82.943 7.00482 83.4001 7.09157 83.7979 7.26508C84.1999 7.43858 84.5151 7.70095 84.7437 8.05219C84.9764 8.39919 85.0928 8.83506 85.0928 9.3598V12.413C85.0928 12.7262 85.1139 13.0076 85.1562 13.2573C85.2028 13.5027 85.2684 13.7164 85.353 13.8984V13.9999H83.7852C83.7132 13.8349 83.6561 13.6254 83.6138 13.3715C83.5757 13.1134 83.5566 12.8637 83.5566 12.6225ZM83.7788 9.82318L83.7915 10.769H82.6934C82.4098 10.769 82.1602 10.7965 81.9443 10.8515C81.7285 10.9023 81.5487 10.9785 81.4048 11.08C81.2609 11.1816 81.153 11.3043 81.0811 11.4482C81.0091 11.5921 80.9731 11.755 80.9731 11.937C80.9731 12.1189 81.0155 12.2861 81.1001 12.4384C81.1847 12.5865 81.3075 12.7029 81.4683 12.7875C81.6333 12.8722 81.8322 12.9145 82.0649 12.9145C82.3781 12.9145 82.651 12.851 82.8838 12.7241C83.1208 12.5929 83.307 12.4342 83.4424 12.248C83.5778 12.0576 83.6497 11.8777 83.6582 11.7084L84.1533 12.3876C84.1025 12.5611 84.0158 12.7473 83.8931 12.9462C83.7703 13.1451 83.6095 13.3356 83.4106 13.5175C83.216 13.6953 82.9811 13.8412 82.7061 13.9555C82.4352 14.0698 82.1221 14.1269 81.7666 14.1269C81.318 14.1269 80.9181 14.038 80.5669 13.8603C80.2157 13.6783 79.9406 13.435 79.7417 13.1303C79.5428 12.8214 79.4434 12.4723 79.4434 12.0829C79.4434 11.719 79.5111 11.3974 79.6465 11.1181C79.7861 10.8346 79.9893 10.5976 80.2559 10.4072C80.5267 10.2167 80.8568 10.0729 81.2461 9.97552C81.6354 9.87396 82.0798 9.82318 82.5791 9.82318H83.7788Z" fill="white"/>
<path d="M88.2285 8.45209V16.6406H86.6987V7.13177H88.1079L88.2285 8.45209ZM92.7036 10.5024V10.6357C92.7036 11.135 92.6444 11.5984 92.5259 12.0258C92.4116 12.449 92.2402 12.8193 92.0117 13.1367C91.7874 13.4498 91.5103 13.6931 91.1802 13.8666C90.8501 14.0401 90.4692 14.1269 90.0376 14.1269C89.6102 14.1269 89.2357 14.0486 88.9141 13.892C88.5967 13.7312 88.328 13.5048 88.1079 13.2128C87.8879 12.9208 87.7101 12.5781 87.5747 12.1845C87.4435 11.7867 87.3504 11.3509 87.2954 10.8769V10.3627C87.3504 9.85915 87.4435 9.40212 87.5747 8.99164C87.7101 8.58116 87.8879 8.2278 88.1079 7.93158C88.328 7.63536 88.5967 7.40684 88.9141 7.24603C89.2314 7.08523 89.6017 7.00482 90.0249 7.00482C90.4565 7.00482 90.8395 7.08946 91.1738 7.25873C91.5081 7.42377 91.7896 7.66075 92.0181 7.96967C92.2466 8.27435 92.418 8.64252 92.5322 9.07416C92.6465 9.50157 92.7036 9.97764 92.7036 10.5024ZM91.1738 10.6357V10.5024C91.1738 10.185 91.1442 9.89089 91.085 9.62006C91.0257 9.34499 90.9326 9.10378 90.8057 8.89642C90.6787 8.68907 90.5158 8.52826 90.3169 8.414C90.1222 8.29551 89.8874 8.23627 89.6123 8.23627C89.3415 8.23627 89.1087 8.28282 88.9141 8.37592C88.7194 8.46478 88.5565 8.58962 88.4253 8.75043C88.2941 8.91123 88.1925 9.09955 88.1206 9.31537C88.0487 9.52696 87.9979 9.75759 87.9683 10.0073V11.2387C88.019 11.5434 88.1058 11.8227 88.2285 12.0766C88.3512 12.3305 88.5247 12.5336 88.749 12.686C88.9775 12.8341 89.2695 12.9081 89.625 12.9081C89.9001 12.9081 90.1349 12.8489 90.3296 12.7304C90.5243 12.6119 90.6829 12.449 90.8057 12.2416C90.9326 12.03 91.0257 11.7867 91.085 11.5117C91.1442 11.2366 91.1738 10.9446 91.1738 10.6357Z" fill="white"/>
<path d="M96.7725 7.13177V13.9999H95.2363V7.13177H96.7725ZM99.0259 7.13177V8.33783H93.021V7.13177H99.0259Z" fill="white"/>
<path d="M101.184 9.31537H103.209C103.801 9.31537 104.305 9.41482 104.72 9.61371C105.134 9.8126 105.45 10.0898 105.666 10.4453C105.886 10.7965 105.996 11.1985 105.996 11.6513C105.996 11.9856 105.934 12.2967 105.812 12.5844C105.689 12.8679 105.507 13.1155 105.266 13.3271C105.029 13.5387 104.737 13.7037 104.39 13.8222C104.047 13.9407 103.653 13.9999 103.209 13.9999H100.168V7.13177H101.705V12.7875H103.209C103.514 12.7875 103.757 12.7346 103.939 12.6288C104.121 12.5231 104.252 12.3855 104.333 12.2162C104.417 12.047 104.459 11.8671 104.459 11.6767C104.459 11.482 104.417 11.298 104.333 11.1245C104.252 10.9509 104.121 10.8092 103.939 10.6992C103.757 10.5891 103.514 10.5341 103.209 10.5341H101.184V9.31537ZM108.7 7.13177V13.9999H107.17V7.13177H108.7Z" fill="white"/>
<path fill-rule="evenodd" clip-rule="evenodd" d="M129.364 2.39019C129.381 2.41186 129.394 2.44234 129.416 2.45431C130.102 2.82006 130.789 3.18401 131.476 3.54823C132.123 3.90077 132.775 4.2438 133.415 4.60815C134.378 5.15657 135.389 5.58241 136.469 5.84066C137.017 5.99557 137.564 6.15049 138.143 6.31439C137.888 6.5472 137.664 6.7522 137.439 6.95725C136.682 7.62392 135.924 8.28932 135.168 8.95761C133.941 10.0422 132.716 11.1287 131.491 12.2144C130.409 13.1658 129.327 14.1173 128.246 15.0691C128.215 15.096 128.152 15.1249 128.187 15.1694C128.242 15.2371 128.308 15.1804 128.365 15.1549C130.694 14.1096 133.024 13.0637 135.353 12.0165C135.395 11.9976 135.46 11.9965 135.457 11.9238C135.692 11.8334 135.928 11.748 136.16 11.6514C136.489 11.5145 136.814 11.3693 137.14 11.2277C137.137 11.2419 137.135 11.257 137.129 11.2701C135.817 14.166 134.504 17.0618 133.192 19.9585C133.166 20.0164 133.093 20.0678 133.175 20.2182C133.274 20.0976 133.351 19.9941 133.437 19.8978C134.549 18.6532 135.662 17.4107 136.773 16.1653C137.425 15.4341 138.072 14.6986 138.722 13.9651C139.269 13.393 139.791 12.7987 140.306 12.1986C140.497 11.9932 140.691 11.791 140.877 11.5818C141.265 11.1464 141.649 10.7072 142.034 10.2696C142.202 10.3488 142.153 10.5226 142.193 10.6527C142.361 11.1989 142.506 11.7517 142.678 12.2973C142.827 12.7731 142.991 13.2419 143.189 13.6991C143.506 14.4323 143.942 15.1027 144.323 15.8025C144.923 16.9063 145.527 18.0083 146.142 19.1041C146.28 19.3509 146.374 19.6248 146.568 19.8398C146.76 20.2581 146.983 20.6582 147.24 21.042C147.265 20.9827 147.271 20.933 147.272 20.8833C147.273 19.9195 147.275 18.9556 147.275 17.9918C147.274 16.7943 147.27 15.597 147.268 14.3996C147.27 12.7304 147.272 11.0612 147.276 9.39196C147.278 8.6698 147.116 7.98699 146.794 7.3408C146.596 6.87352 146.299 6.4718 145.954 6.10426C145.863 6.0079 145.855 5.95855 145.968 5.8686C146.213 5.67417 146.433 5.45114 146.627 5.20495C147.003 4.72727 147.307 4.212 147.451 3.61481C147.581 3.36647 147.616 3.09099 147.668 2.82212C147.694 2.69195 147.748 2.60024 147.852 2.51659C148.346 2.11852 148.834 1.71277 149.322 1.31071C149.281 1.24452 149.221 1.24865 149.177 1.25141C148.731 1.27965 148.297 1.14794 147.854 1.15316C147.62 1.15593 147.392 1.15807 147.211 0.960091C147.13 0.871713 146.999 0.835528 146.879 0.800133C146.352 0.645044 145.824 0.680966 145.294 0.777151C144.09 0.975354 143.193 1.66369 142.422 2.55392C142.333 2.55901 142.301 2.47975 142.249 2.43344C141.418 1.69282 140.452 1.26461 139.334 1.19347C139.221 1.15123 139.103 1.16544 138.987 1.16544C135.886 1.16496 132.786 1.1654 129.686 1.1661C129.554 1.16614 129.422 1.17027 129.29 1.17246C128.574 1.17246 127.858 1.17246 127.142 1.17246C127.135 1.18729 127.129 1.20211 127.122 1.21694C127.82 1.58931 128.518 1.96168 129.216 2.33409C129.252 2.38576 129.309 2.38712 129.364 2.39019Z" fill="white"/>
<path fill-rule="evenodd" clip-rule="evenodd" d="M139.334 1.19347C140.453 1.26465 141.418 1.69286 142.249 2.43344C142.301 2.47975 142.333 2.55901 142.422 2.55392C142.339 2.8812 142.367 3.21965 142.349 3.55031C142.311 4.23768 142.128 4.8933 141.943 5.54155C141.794 6.06094 141.563 6.56349 141.302 7.04762C140.894 7.80114 140.446 8.52241 139.839 9.13483C139.516 9.46172 139.182 9.77935 138.85 10.0976C138.734 10.2083 138.648 10.2294 138.61 10.0235C138.557 9.73505 138.498 9.44005 138.399 9.16944C138.192 8.60206 137.999 8.02548 137.676 7.50324C137.574 7.33951 137.437 7.17304 137.439 6.95725C137.664 6.7522 137.888 6.5472 138.143 6.31439C137.564 6.15049 137.017 5.99557 136.469 5.84066C136.48 5.80596 136.573 5.78335 136.511 5.74489C136.263 5.59129 136.119 5.33756 135.91 5.14545C135.33 4.614 134.721 4.12632 134.044 3.72285C133.837 3.59952 133.612 3.5061 133.428 3.34618C134.372 3.13281 135.29 2.84802 136.146 2.38289C136.764 2.04688 137.359 1.67981 137.882 1.20744C138.366 1.20279 138.851 1.19816 139.334 1.19347Z" fill="white"/>
<path fill-rule="evenodd" clip-rule="evenodd" d="M137.439 6.95725C137.437 7.17304 137.573 7.33953 137.675 7.50325C137.998 8.0255 138.191 8.60212 138.398 9.16945C138.497 9.44007 138.556 9.73507 138.609 10.0235C138.647 10.2294 138.733 10.2083 138.849 10.0977C139.181 9.77937 139.515 9.46174 139.838 9.13485C140.445 8.52243 140.893 7.80115 141.301 7.04764C141.562 6.56351 141.793 6.06096 141.941 5.54157C142.127 4.89332 142.31 4.23766 142.348 3.55033C142.365 3.21967 142.339 2.8812 142.422 2.55392C143.193 1.66369 144.09 0.975354 145.294 0.777151C145.388 0.838862 145.505 0.767626 145.606 0.825433C145.287 1.28614 144.972 1.73746 144.714 2.22738C144.258 3.09431 143.961 4.01537 143.762 4.96779C143.724 5.14845 143.627 5.34574 143.744 5.53876C143.688 5.58359 143.632 5.62841 143.576 5.67319C143.515 5.7246 143.452 5.77302 143.394 5.8278C142.397 6.77312 141.606 7.86291 141.062 9.12502C140.639 10.1076 140.386 11.1323 140.306 12.1986C139.791 12.7987 139.269 13.393 138.722 13.9651C138.707 13.7758 138.785 13.5915 138.788 13.4145C138.797 12.9645 138.913 12.5201 138.875 12.0739C138.849 11.7797 138.8 11.4861 138.814 11.1909C138.827 10.9331 138.71 10.699 138.709 10.4431C138.709 10.3307 138.63 10.237 138.494 10.3649C138.27 10.576 137.995 10.719 137.739 10.8862C137.547 11.0117 137.341 11.1147 137.14 11.2277C136.814 11.3693 136.489 11.5145 136.16 11.6514C135.928 11.748 135.692 11.8334 135.457 11.9238C135.234 11.9427 135.013 12.0026 134.806 12.0632C134.388 12.1847 133.961 12.239 133.537 12.2773C132.919 12.3331 132.295 12.3117 131.674 12.2827C131.609 12.2797 131.521 12.3181 131.491 12.2144C132.716 11.1287 133.941 10.0422 135.168 8.95761C135.924 8.28932 136.682 7.62392 137.439 6.95725Z" fill="white"/>
<path fill-rule="evenodd" clip-rule="evenodd" d="M146.568 19.8398C146.374 19.6248 146.28 19.3509 146.142 19.1041C145.527 18.0083 144.923 16.9063 144.323 15.8025C143.942 15.1027 143.506 14.4323 143.189 13.6991C142.991 13.2419 142.827 12.7731 142.678 12.2973C142.506 11.7517 142.361 11.1989 142.193 10.6527C142.153 10.5226 142.202 10.3488 142.034 10.2696C142.303 9.99481 142.561 9.70971 142.843 9.44839C143.107 9.203 143.367 8.94642 143.696 8.78141C143.78 8.78194 143.816 8.81168 143.839 8.90488C143.92 9.24041 144.023 9.5723 144.127 9.90011C144.255 10.3055 144.439 10.6962 144.635 11.0789C144.826 11.4527 145.035 11.8162 145.26 12.1687C145.439 12.4493 145.66 12.7042 145.87 12.9642C146.205 13.3779 146.582 13.7524 146.986 14.0982C147.088 14.1859 147.231 14.2315 147.23 14.3988C146.985 14.7616 146.766 15.1387 146.617 15.551C146.44 16.0437 146.302 16.5443 146.248 17.0703C146.157 17.9381 146.228 18.7833 146.521 19.607C146.548 19.6841 146.575 19.7576 146.568 19.8398Z" fill="white"/>
<path fill-rule="evenodd" clip-rule="evenodd" d="M137.14 11.2277C137.341 11.1147 137.547 11.0117 137.739 10.8862C137.995 10.719 138.27 10.576 138.494 10.3649C138.63 10.237 138.709 10.3307 138.709 10.4431C138.71 10.699 138.827 10.9331 138.814 11.1909C138.8 11.4861 138.849 11.7797 138.875 12.0739C138.913 12.5201 138.797 12.9645 138.788 13.4145C138.785 13.5915 138.707 13.7758 138.722 13.9651C138.072 14.6986 137.425 15.4341 136.773 16.1653C135.662 17.4107 134.549 18.6532 133.437 19.8978C133.351 19.9941 133.274 20.0976 133.175 20.2182C133.093 20.0678 133.166 20.0164 133.192 19.9585C134.504 17.0618 135.817 14.166 137.129 11.2701C137.135 11.257 137.137 11.2419 137.14 11.2277Z" fill="white"/>
<path fill-rule="evenodd" clip-rule="evenodd" d="M147.23 14.3988C147.231 14.2315 147.088 14.1859 146.986 14.0982C146.582 13.7524 146.205 13.3779 145.87 12.9642C145.66 12.7042 145.439 12.4493 145.26 12.1687C145.035 11.8162 144.826 11.4527 144.635 11.0789C144.439 10.6962 144.255 10.3055 144.127 9.90011C144.023 9.5723 143.92 9.24041 143.839 8.90488C143.816 8.81168 143.78 8.78194 143.696 8.78141C143.758 8.72479 143.82 8.6681 143.881 8.61139C144.631 8.15551 145.405 7.75261 146.256 7.5095C146.436 7.45809 146.631 7.44747 146.794 7.3408C147.116 7.98699 147.278 8.6698 147.276 9.39196C147.272 11.0612 147.27 12.7304 147.268 14.3996C147.255 14.3995 147.243 14.3993 147.23 14.3988Z" fill="white"/>
<path fill-rule="evenodd" clip-rule="evenodd" d="M137.882 1.20744C137.359 1.67981 136.764 2.04688 136.146 2.38289C135.29 2.84802 134.372 3.13281 133.428 3.34618C133.37 3.34763 133.312 3.34919 133.254 3.35068C133.25 3.28932 133.206 3.2723 133.155 3.25055C132.665 3.04041 132.171 2.83905 131.652 2.70975C130.902 2.52252 130.149 2.33664 129.364 2.39019C129.335 2.31725 129.268 2.34506 129.216 2.33409C128.518 1.96168 127.82 1.58931 127.122 1.21694C127.129 1.20211 127.135 1.18729 127.142 1.17246C127.858 1.17246 128.574 1.17246 129.29 1.17246C129.372 1.22018 129.462 1.1975 129.548 1.19755C132.245 1.19891 134.942 1.19856 137.64 1.19899C137.72 1.19899 137.802 1.20446 137.882 1.20744Z" fill="white"/>
<path fill-rule="evenodd" clip-rule="evenodd" d="M143.744 5.53876C143.627 5.34574 143.724 5.14845 143.762 4.96779C143.961 4.01537 144.258 3.09431 144.714 2.22738C144.972 1.73746 145.287 1.28614 145.606 0.825433C145.505 0.76767 145.387 0.838874 145.293 0.777119C145.823 0.680977 146.351 0.645012 146.878 0.800101C146.998 0.83554 147.129 0.871725 147.21 0.960059C147.391 1.15809 147.619 1.15594 147.853 1.15313C148.296 1.14791 148.73 1.27962 149.176 1.25138C149.22 1.24861 149.279 1.24449 149.321 1.31068C148.832 1.71274 148.345 2.11849 147.851 2.51656C147.747 2.6002 147.693 2.69192 147.667 2.82209C147.615 3.09095 147.58 3.36644 147.45 3.61473C147.034 3.67811 146.651 3.84329 146.267 4.00188C145.346 4.38272 144.516 4.9142 143.744 5.53876Z" fill="white"/>
<path fill-rule="evenodd" clip-rule="evenodd" d="M143.744 5.53876C144.516 4.9142 145.346 4.38272 146.267 4.00188C146.651 3.84329 147.035 3.67818 147.451 3.61481C147.307 4.212 147.003 4.72727 146.627 5.20495C146.433 5.45114 146.213 5.67417 145.968 5.8686C145.855 5.95855 145.863 6.0079 145.954 6.10426C146.299 6.4718 146.596 6.87352 146.794 7.3408C146.631 7.44751 146.435 7.45803 146.255 7.50943C145.404 7.75255 144.63 8.15544 143.879 8.61133C143.756 8.58597 143.746 8.48834 143.747 8.39295C143.75 8.21128 143.722 8.02869 143.691 7.85557C143.568 7.17798 143.598 6.50205 143.654 5.82358C143.659 5.75955 143.674 5.68684 143.576 5.67319C143.632 5.62841 143.688 5.58359 143.744 5.53876Z" fill="white"/>
<path fill-rule="evenodd" clip-rule="evenodd" d="M143.576 5.67319C143.674 5.68684 143.659 5.75955 143.654 5.82358C143.598 6.50205 143.568 7.17798 143.691 7.85557C143.722 8.02869 143.75 8.21128 143.747 8.39295C143.746 8.48839 143.758 8.58604 143.881 8.61139C143.82 8.6681 143.758 8.72479 143.696 8.78141C143.367 8.94642 143.107 9.203 142.843 9.44839C142.561 9.70971 142.303 9.99481 142.034 10.2696C141.649 10.7072 141.265 11.1464 140.877 11.5818C140.691 11.791 140.497 11.9932 140.306 12.1986C140.386 11.1323 140.639 10.1076 141.062 9.12502C141.606 7.86291 142.397 6.77312 143.394 5.8278C143.452 5.77302 143.515 5.7246 143.576 5.67319Z" fill="white"/>
<path fill-rule="evenodd" clip-rule="evenodd" d="M131.491 12.2144C131.521 12.318 131.61 12.2797 131.675 12.2827C132.296 12.3117 132.92 12.3331 133.538 12.2773C133.962 12.239 134.389 12.1848 134.807 12.0632C135.015 12.0026 135.234 11.9427 135.457 11.9238C135.46 11.9965 135.395 11.9976 135.353 12.0165C133.024 13.0637 130.694 14.1096 128.365 15.1549C128.308 15.1804 128.242 15.2371 128.187 15.1694C128.152 15.1249 128.215 15.096 128.246 15.0691C129.327 14.1173 130.409 13.1658 131.491 12.2144Z" fill="white"/>
<path fill-rule="evenodd" clip-rule="evenodd" d="M147.23 14.3988C147.243 14.3993 147.255 14.3995 147.268 14.3996C147.27 15.597 147.274 16.7943 147.275 17.9918C147.275 18.9556 147.273 19.9195 147.272 20.8833C147.271 20.933 147.265 20.9827 147.24 21.042C146.983 20.6582 146.76 20.2581 146.568 19.8398C146.575 19.7576 146.548 19.6841 146.521 19.607C146.228 18.7833 146.157 17.9381 146.248 17.0703C146.302 16.5443 146.44 16.0437 146.617 15.551C146.766 15.1387 146.985 14.7616 147.23 14.3988Z" fill="white"/>
<path fill-rule="evenodd" clip-rule="evenodd" d="M133.254 3.35068C133.312 3.34919 133.37 3.34763 133.428 3.34618C133.612 3.5061 133.837 3.59952 134.044 3.72285C134.721 4.12632 135.33 4.614 135.91 5.14545C136.119 5.33756 136.263 5.59129 136.511 5.74489C136.573 5.78335 136.48 5.80596 136.469 5.84066C135.389 5.58241 134.378 5.15657 133.415 4.60815C132.775 4.2438 132.123 3.90077 131.476 3.54823C131.646 3.49757 131.823 3.50795 131.997 3.49738C132.419 3.47168 132.841 3.45081 133.254 3.35068Z" fill="white"/>
<path fill-rule="evenodd" clip-rule="evenodd" d="M133.254 3.35068C132.841 3.45081 132.419 3.47168 131.997 3.49738C131.823 3.50795 131.646 3.49757 131.476 3.54823C130.789 3.18401 130.102 2.82006 129.416 2.45431C129.394 2.44234 129.381 2.41186 129.364 2.39019C130.149 2.33664 130.902 2.52252 131.652 2.70975C132.171 2.83905 132.665 3.04041 133.155 3.25055C133.206 3.2723 133.25 3.28932 133.254 3.35068Z" fill="white"/>
<path fill-rule="evenodd" clip-rule="evenodd" d="M137.881 1.20749C137.8 1.20451 137.72 1.19899 137.64 1.19899C134.942 1.19856 132.245 1.19891 129.548 1.19755C129.462 1.1975 129.372 1.22018 129.29 1.17246C129.422 1.17027 129.554 1.16614 129.686 1.1661C132.786 1.1654 135.886 1.16496 138.987 1.16544C139.103 1.16544 139.22 1.15117 139.333 1.19341C138.849 1.19806 138.365 1.2028 137.881 1.20749Z" fill="white"/>
<path fill-rule="evenodd" clip-rule="evenodd" d="M129.364 2.39019C129.335 2.31725 129.268 2.34506 129.216 2.33409C129.252 2.38576 129.309 2.38712 129.364 2.39019Z" fill="white"/>
<path d="M154.129 4.75775V13.9999H152.384V4.75775H154.129ZM159.633 4.75775L155.983 10.1025H153.691L153.463 8.56635H155.037L157.506 4.75775H159.633ZM157.836 13.9999L155.05 9.82318L156.224 8.53461L159.925 13.9999H157.836Z" fill="white"/>
<path d="M168.697 4.75775V13.9999H166.951V6.13519H163.041V13.9999H161.295V4.75775H168.697Z" fill="white"/>
<path d="M116.26 13.2529L115.688 12.6669L121.394 6.83685L121.965 7.43744L116.26 13.2529ZM121.504 13.2529L115.798 7.43744L116.37 6.83685L122.083 12.6669L121.504 13.2529Z" fill="white"/>
</svg>
